<mxfile host="app.diagrams.net" modified="2022-01-27T07:27:31.037Z" agent="5.0 (Windows NT 10.0; Win64; x64) AppleWebKit/537.36 (KHTML, like Gecko) Chrome/97.0.4692.99 Safari/537.36" etag="KSBeeN9-zC24CPfa2Bg5" version="16.2.7" type="github">
  <diagram id="g6V1LYvYvE0cFW_qO766" name="Page-1">
    <mxGraphModel dx="981" dy="526" grid="1" gridSize="10" guides="1" tooltips="1" connect="1" arrows="1" fold="1" page="1" pageScale="1" pageWidth="827" pageHeight="1169" math="0" shadow="0">
      <root>
        <mxCell id="0" />
        <mxCell id="1" parent="0" />
        <mxCell id="Sua24pKOZ4_qKl_0Wwsn-2" value="用户路径" style="text;strokeColor=none;fillColor=none;html=1;fontSize=24;fontStyle=1;verticalAlign=middle;align=center;" vertex="1" parent="1">
          <mxGeometry x="20" y="30" width="100" height="40" as="geometry" />
        </mxCell>
        <mxCell id="Sua24pKOZ4_qKl_0Wwsn-6" style="edgeStyle=orthogonalEdgeStyle;rounded=0;orthogonalLoop=1;jettySize=auto;html=1;exitX=1;exitY=0.5;exitDx=0;exitDy=0;entryX=0;entryY=0.5;entryDx=0;entryDy=0;" edge="1" parent="1" source="Sua24pKOZ4_qKl_0Wwsn-3" target="Sua24pKOZ4_qKl_0Wwsn-4">
          <mxGeometry relative="1" as="geometry" />
        </mxCell>
        <mxCell id="Sua24pKOZ4_qKl_0Wwsn-9" value="常规打开" style="edgeLabel;html=1;align=center;verticalAlign=middle;resizable=0;points=[];" vertex="1" connectable="0" parent="Sua24pKOZ4_qKl_0Wwsn-6">
          <mxGeometry x="-0.208" relative="1" as="geometry">
            <mxPoint y="-10" as="offset" />
          </mxGeometry>
        </mxCell>
        <mxCell id="Sua24pKOZ4_qKl_0Wwsn-7" style="edgeStyle=orthogonalEdgeStyle;rounded=0;orthogonalLoop=1;jettySize=auto;html=1;exitX=1;exitY=0.5;exitDx=0;exitDy=0;entryX=0;entryY=0.5;entryDx=0;entryDy=0;" edge="1" parent="1" source="Sua24pKOZ4_qKl_0Wwsn-3" target="Sua24pKOZ4_qKl_0Wwsn-5">
          <mxGeometry relative="1" as="geometry" />
        </mxCell>
        <mxCell id="Sua24pKOZ4_qKl_0Wwsn-8" value="明确意图" style="edgeLabel;html=1;align=center;verticalAlign=middle;resizable=0;points=[];" vertex="1" connectable="0" parent="Sua24pKOZ4_qKl_0Wwsn-7">
          <mxGeometry x="0.157" y="-2" relative="1" as="geometry">
            <mxPoint y="-6" as="offset" />
          </mxGeometry>
        </mxCell>
        <mxCell id="Sua24pKOZ4_qKl_0Wwsn-3" value="" style="ellipse;shape=doubleEllipse;html=1;dashed=0;whitespace=wrap;aspect=fixed;" vertex="1" parent="1">
          <mxGeometry x="40" y="140" width="30" height="30" as="geometry" />
        </mxCell>
        <mxCell id="Sua24pKOZ4_qKl_0Wwsn-10" value="" style="edgeStyle=orthogonalEdgeStyle;rounded=0;orthogonalLoop=1;jettySize=auto;html=1;" edge="1" parent="1" source="Sua24pKOZ4_qKl_0Wwsn-4" target="Sua24pKOZ4_qKl_0Wwsn-5">
          <mxGeometry relative="1" as="geometry" />
        </mxCell>
        <mxCell id="Sua24pKOZ4_qKl_0Wwsn-11" value="没有喜欢的，有明确意向" style="edgeLabel;html=1;align=center;verticalAlign=middle;resizable=0;points=[];" vertex="1" connectable="0" parent="Sua24pKOZ4_qKl_0Wwsn-10">
          <mxGeometry x="-0.2111" y="1" relative="1" as="geometry">
            <mxPoint as="offset" />
          </mxGeometry>
        </mxCell>
        <mxCell id="Sua24pKOZ4_qKl_0Wwsn-13" value="" style="edgeStyle=orthogonalEdgeStyle;rounded=0;orthogonalLoop=1;jettySize=auto;html=1;" edge="1" parent="1" source="Sua24pKOZ4_qKl_0Wwsn-4" target="Sua24pKOZ4_qKl_0Wwsn-12">
          <mxGeometry relative="1" as="geometry" />
        </mxCell>
        <mxCell id="Sua24pKOZ4_qKl_0Wwsn-14" value="看到喜欢的" style="edgeLabel;html=1;align=center;verticalAlign=middle;resizable=0;points=[];" vertex="1" connectable="0" parent="Sua24pKOZ4_qKl_0Wwsn-13">
          <mxGeometry x="-0.3094" y="2" relative="1" as="geometry">
            <mxPoint x="11" y="2" as="offset" />
          </mxGeometry>
        </mxCell>
        <mxCell id="Sua24pKOZ4_qKl_0Wwsn-16" style="edgeStyle=orthogonalEdgeStyle;rounded=0;orthogonalLoop=1;jettySize=auto;html=1;exitX=1;exitY=1;exitDx=0;exitDy=0;entryX=0;entryY=0.5;entryDx=0;entryDy=0;" edge="1" parent="1" source="Sua24pKOZ4_qKl_0Wwsn-4" target="Sua24pKOZ4_qKl_0Wwsn-15">
          <mxGeometry relative="1" as="geometry">
            <Array as="points">
              <mxPoint x="260" y="120" />
              <mxPoint x="260" y="200" />
            </Array>
          </mxGeometry>
        </mxCell>
        <mxCell id="Sua24pKOZ4_qKl_0Wwsn-25" value="没有喜欢的，随便逛逛" style="edgeLabel;html=1;align=center;verticalAlign=middle;resizable=0;points=[];" vertex="1" connectable="0" parent="Sua24pKOZ4_qKl_0Wwsn-16">
          <mxGeometry x="-0.3368" relative="1" as="geometry">
            <mxPoint y="16" as="offset" />
          </mxGeometry>
        </mxCell>
        <mxCell id="Sua24pKOZ4_qKl_0Wwsn-4" value="推荐" style="rounded=1;whiteSpace=wrap;html=1;" vertex="1" parent="1">
          <mxGeometry x="130" y="80" width="100" height="40" as="geometry" />
        </mxCell>
        <mxCell id="Sua24pKOZ4_qKl_0Wwsn-19" style="edgeStyle=orthogonalEdgeStyle;rounded=0;orthogonalLoop=1;jettySize=auto;html=1;exitX=0.5;exitY=1;exitDx=0;exitDy=0;entryX=0;entryY=0.5;entryDx=0;entryDy=0;" edge="1" parent="1" source="Sua24pKOZ4_qKl_0Wwsn-5" target="Sua24pKOZ4_qKl_0Wwsn-17">
          <mxGeometry relative="1" as="geometry">
            <Array as="points">
              <mxPoint x="180" y="230" />
              <mxPoint x="272" y="230" />
              <mxPoint x="272" y="270" />
            </Array>
          </mxGeometry>
        </mxCell>
        <mxCell id="Sua24pKOZ4_qKl_0Wwsn-20" style="edgeStyle=orthogonalEdgeStyle;rounded=0;orthogonalLoop=1;jettySize=auto;html=1;exitX=0.5;exitY=1;exitDx=0;exitDy=0;entryX=0;entryY=0.5;entryDx=0;entryDy=0;" edge="1" parent="1" source="Sua24pKOZ4_qKl_0Wwsn-5" target="Sua24pKOZ4_qKl_0Wwsn-18">
          <mxGeometry relative="1" as="geometry" />
        </mxCell>
        <mxCell id="Sua24pKOZ4_qKl_0Wwsn-5" value="搜索" style="rounded=1;whiteSpace=wrap;html=1;" vertex="1" parent="1">
          <mxGeometry x="130" y="180" width="100" height="40" as="geometry" />
        </mxCell>
        <mxCell id="Sua24pKOZ4_qKl_0Wwsn-12" value="阅读" style="rounded=1;whiteSpace=wrap;html=1;" vertex="1" parent="1">
          <mxGeometry x="314" y="80" width="100" height="40" as="geometry" />
        </mxCell>
        <mxCell id="Sua24pKOZ4_qKl_0Wwsn-23" style="edgeStyle=orthogonalEdgeStyle;rounded=0;orthogonalLoop=1;jettySize=auto;html=1;exitX=1;exitY=0.5;exitDx=0;exitDy=0;entryX=0;entryY=0.5;entryDx=0;entryDy=0;" edge="1" parent="1" source="Sua24pKOZ4_qKl_0Wwsn-15" target="Sua24pKOZ4_qKl_0Wwsn-21">
          <mxGeometry relative="1" as="geometry" />
        </mxCell>
        <mxCell id="Sua24pKOZ4_qKl_0Wwsn-26" value="有感兴趣的话题" style="edgeLabel;html=1;align=center;verticalAlign=middle;resizable=0;points=[];" vertex="1" connectable="0" parent="Sua24pKOZ4_qKl_0Wwsn-23">
          <mxGeometry x="0.347" y="-1" relative="1" as="geometry">
            <mxPoint as="offset" />
          </mxGeometry>
        </mxCell>
        <mxCell id="Sua24pKOZ4_qKl_0Wwsn-24" style="edgeStyle=orthogonalEdgeStyle;rounded=0;orthogonalLoop=1;jettySize=auto;html=1;exitX=1;exitY=0.5;exitDx=0;exitDy=0;entryX=0;entryY=0.5;entryDx=0;entryDy=0;" edge="1" parent="1" source="Sua24pKOZ4_qKl_0Wwsn-15" target="Sua24pKOZ4_qKl_0Wwsn-22">
          <mxGeometry relative="1" as="geometry" />
        </mxCell>
        <mxCell id="Sua24pKOZ4_qKl_0Wwsn-27" value="未命中兴趣，有提问交流诉求" style="edgeLabel;html=1;align=center;verticalAlign=middle;resizable=0;points=[];" vertex="1" connectable="0" parent="Sua24pKOZ4_qKl_0Wwsn-24">
          <mxGeometry x="0.1269" y="-3" relative="1" as="geometry">
            <mxPoint x="31" y="-20" as="offset" />
          </mxGeometry>
        </mxCell>
        <mxCell id="Sua24pKOZ4_qKl_0Wwsn-15" value="书荒" style="rounded=1;whiteSpace=wrap;html=1;" vertex="1" parent="1">
          <mxGeometry x="314" y="180" width="100" height="40" as="geometry" />
        </mxCell>
        <mxCell id="Sua24pKOZ4_qKl_0Wwsn-17" value="阅读" style="rounded=1;whiteSpace=wrap;html=1;" vertex="1" parent="1">
          <mxGeometry x="314" y="250" width="100" height="40" as="geometry" />
        </mxCell>
        <mxCell id="Sua24pKOZ4_qKl_0Wwsn-18" value="话题" style="rounded=1;whiteSpace=wrap;html=1;" vertex="1" parent="1">
          <mxGeometry x="314" y="310" width="100" height="40" as="geometry" />
        </mxCell>
        <mxCell id="Sua24pKOZ4_qKl_0Wwsn-29" style="edgeStyle=orthogonalEdgeStyle;rounded=0;orthogonalLoop=1;jettySize=auto;html=1;exitX=1;exitY=0.5;exitDx=0;exitDy=0;entryX=0;entryY=0.5;entryDx=0;entryDy=0;" edge="1" parent="1" source="Sua24pKOZ4_qKl_0Wwsn-21" target="Sua24pKOZ4_qKl_0Wwsn-28">
          <mxGeometry relative="1" as="geometry" />
        </mxCell>
        <mxCell id="Sua24pKOZ4_qKl_0Wwsn-21" value="话题" style="rounded=1;whiteSpace=wrap;html=1;" vertex="1" parent="1">
          <mxGeometry x="530" y="130" width="100" height="40" as="geometry" />
        </mxCell>
        <mxCell id="Sua24pKOZ4_qKl_0Wwsn-22" value="发布" style="rounded=1;whiteSpace=wrap;html=1;" vertex="1" parent="1">
          <mxGeometry x="530" y="220" width="100" height="40" as="geometry" />
        </mxCell>
        <mxCell id="Sua24pKOZ4_qKl_0Wwsn-28" value="阅读" style="rounded=1;whiteSpace=wrap;html=1;" vertex="1" parent="1">
          <mxGeometry x="660" y="130" width="100" height="40" as="geometry" />
        </mxCell>
      </root>
    </mxGraphModel>
  </diagram>
</mxfile>
